<svg width="23" height="23" viewBox="0 0 23 23" fill="none" xmlns="http://www.w3.org/2000/svg">
<g opacity="0.7" clip-path="url(#clip0_30_407)">
<path fill-rule="evenodd" clip-rule="evenodd" d="M11.5095 0C5.14505 0 0 5.18298 0 11.595C0 16.7205 3.29661 21.0592 7.86988 22.5947C8.44166 22.7102 8.6511 22.3452 8.6511 22.0383C8.6511 21.7695 8.63225 20.8481 8.63225 19.888C5.43059 20.5793 4.76387 18.5058 4.76387 18.5058C4.24934 17.162 3.48697 16.8167 3.48697 16.8167C2.43906 16.1063 3.5633 16.1063 3.5633 16.1063C4.7257 16.1832 5.33564 17.2965 5.33564 17.2965C6.36446 19.0625 8.02231 18.5636 8.68927 18.2563C8.78444 17.5076 9.08953 16.9893 9.41347 16.7014C6.85991 16.4326 4.17324 15.4344 4.17324 10.9806C4.17324 9.71361 4.63029 8.67702 5.35449 7.87083C5.24023 7.58294 4.83996 6.3925 5.46899 4.7992C5.46899 4.7992 6.4408 4.492 8.63202 5.98941C9.57016 5.7356 10.5376 5.60648 11.5095 5.60539C12.4813 5.60539 13.472 5.73992 14.3868 5.98941C16.5782 4.492 17.55 4.7992 17.55 4.7992C18.1791 6.3925 17.7786 7.58294 17.6643 7.87083C18.4076 8.67702 18.8458 9.71361 18.8458 10.9806C18.8458 15.4344 16.1591 16.4133 13.5865 16.7014C14.0058 17.0661 14.3677 17.7571 14.3677 18.8514C14.3677 20.4063 14.3488 21.6543 14.3488 22.038C14.3488 22.3452 14.5585 22.7102 15.1301 22.595C19.7033 21.0589 22.9999 16.7205 22.9999 11.595C23.0188 5.18298 17.8549 0 11.5095 0Z" fill="white"/>
</g>
<defs>
<clipPath id="clip0_30_407">
<rect width="23" height="23" fill="white"/>
</clipPath>
</defs>
</svg>
