<svg width="23" height="23" viewBox="0 0 23 23" fill="none" xmlns="http://www.w3.org/2000/svg">
<g opacity="0.7">
<path d="M0 23L1.6167 17.0938C0.619082 15.365 0.0948748 13.4052 0.0958331 11.3955C0.0987081 5.11271 5.21141 0 11.4933 0C14.5417 0.000958333 17.4033 1.18833 19.5557 3.34267C21.7072 5.497 22.8917 8.3605 22.8907 11.4061C22.8878 17.6899 17.7751 22.8026 11.4933 22.8026C9.58619 22.8016 7.7069 22.3234 6.04228 21.4149L0 23ZM6.32211 19.3516C7.92827 20.3052 9.4616 20.8763 11.4894 20.8773C16.7104 20.8773 20.9635 16.628 20.9664 11.4042C20.9683 6.16975 16.7353 1.92625 11.4971 1.92433C6.27228 1.92433 2.02208 6.17358 2.02016 11.3965C2.0192 13.5288 2.64404 15.1254 3.69341 16.7957L2.73604 20.2917L6.32211 19.3516ZM17.2346 14.1153C17.1637 13.9965 16.974 13.9255 16.6884 13.7828C16.4038 13.64 15.0036 12.9509 14.742 12.856C14.4813 12.7612 14.2916 12.7133 14.1009 12.9988C13.9111 13.2835 13.3649 13.9255 13.1991 14.1153C13.0333 14.305 12.8666 14.329 12.5819 14.1862C12.2973 14.0434 11.3792 13.7435 10.2915 12.7727C9.44531 12.0175 8.87319 11.085 8.7074 10.7995C8.54161 10.5148 8.69015 10.3605 8.83198 10.2187C8.9604 10.0912 9.1166 9.88617 9.2594 9.71942C9.4041 9.55458 9.45106 9.43575 9.5469 9.24504C9.64177 9.05529 9.59481 8.88854 9.52294 8.74575C9.45106 8.60392 8.88181 7.20187 8.64511 6.63167C8.41319 6.07679 8.1784 6.15154 8.00398 6.14292L7.45773 6.13333C7.26798 6.13333 6.9594 6.20425 6.69874 6.48983C6.43807 6.77542 5.70207 7.4635 5.70207 8.86554C5.70207 10.2676 6.72269 11.6217 6.86453 11.8115C7.00732 12.0012 8.87223 14.8781 11.729 16.1115C12.4085 16.4048 12.9394 16.5801 13.3524 16.7114C14.0348 16.928 14.6558 16.8973 15.1464 16.8245C15.6936 16.743 16.8312 16.1355 17.0688 15.4704C17.3065 14.8043 17.3065 14.2341 17.2346 14.1153Z" fill="white"/>
</g>
</svg>
